<svg version="1.1" id="Layer_1" xmlns="http://www.w3.org/2000/svg" xmlns:xlink="http://www.w3.org/1999/xlink" x="0px" y="0px"
	 width="100%" viewBox="0 0 742 652" enable-background="new 0 0 742 652" xml:space="preserve">
<path fill="#F6F0E5" opacity="1.000000" stroke="none" 
	d="
M421.000000,653.000000 
	C280.666656,653.000000 140.833328,653.000000 1.000000,653.000000 
	C1.000000,435.666656 1.000000,218.333328 1.000000,1.000000 
	C248.333328,1.000000 495.666656,1.000000 743.000000,1.000000 
	C743.000000,218.333328 743.000000,435.666656 743.000000,653.000000 
	C635.833313,653.000000 528.666687,653.000000 421.000000,653.000000 
M468.931976,137.225800 
	C468.931976,137.225800 468.706512,137.313400 468.852905,136.556946 
	C467.570770,134.544876 466.702515,132.012802 464.937256,130.607758 
	C455.632416,123.201630 444.590179,120.316536 432.986450,120.122681 
	C421.869659,119.936958 410.730469,121.087982 399.613831,120.899788 
	C383.722321,120.630745 362.077057,133.069214 356.327362,151.395325 
	C356.031219,152.339249 355.645966,153.262177 355.226318,154.159393 
	C346.236267,173.379196 337.058594,192.513672 328.290619,211.834106 
	C320.819824,228.296127 313.968079,245.038345 306.565002,261.532074 
	C299.706390,276.812805 292.471039,291.924316 285.419556,307.118683 
	C281.822021,314.870575 278.263885,322.640808 274.334381,331.170288 
	C273.090851,328.894531 272.147766,327.381805 271.405518,325.776245 
	C265.702026,313.439331 260.081818,301.063812 254.347717,288.741241 
	C249.231674,277.746918 243.990112,266.811127 238.827637,255.838333 
	C233.186081,243.847244 227.538986,231.858597 221.955261,219.840561 
	C216.948837,209.065033 212.021164,198.252869 207.066025,187.453537 
	C200.304977,172.718460 194.157013,157.661835 186.628510,143.330185 
	C178.606400,128.058868 163.963333,122.119484 147.742615,121.206589 
	C130.964706,120.262321 114.092308,120.996964 97.261238,120.997154 
	C80.263527,120.997353 63.265747,120.969963 46.268158,121.014786 
	C41.309082,121.027863 40.326626,122.657349 42.364170,127.016083 
	C46.371117,135.587769 50.368259,144.164093 54.347889,152.748505 
	C64.743950,175.173645 75.044914,197.643326 85.541656,220.021194 
	C95.398781,241.035461 105.545753,261.913757 115.404152,282.927429 
	C125.913879,305.329468 136.188690,327.841614 146.655151,350.264069 
	C153.094788,364.059814 159.802979,377.730560 166.201294,391.545105 
	C171.481171,402.944855 176.323120,414.548218 181.645264,425.927490 
	C189.794144,443.350586 198.284134,460.614014 206.454819,478.027100 
	C216.093521,498.568787 225.342911,519.295715 235.193161,539.734192 
	C238.517487,546.631836 244.273636,552.288757 252.195557,552.787903 
	C264.731537,553.577576 277.356537,552.830750 289.937408,553.071167 
	C299.697998,553.257751 306.759430,548.397034 311.018463,540.560242 
	C319.483917,524.983276 327.156189,508.963501 334.813629,492.962769 
	C340.884705,480.276886 346.362305,467.308441 352.253174,454.534546 
	C359.517059,438.783386 366.952362,423.111420 374.284546,407.391693 
	C385.498596,383.349365 396.695770,359.299194 407.884918,335.245300 
	C416.600494,316.508911 425.279083,297.755341 434.000977,279.021881 
	C439.041229,268.196045 444.104767,257.380798 449.210846,246.585876 
	C458.467041,227.017151 468.317993,207.706055 476.868256,187.834579 
	C483.852966,171.601639 483.701447,155.157440 472.932159,140.050400 
	C472.030029,138.784943 470.143372,138.221313 468.931976,137.225800 
M488.413971,553.078064 
	C493.016815,554.238525 497.711182,555.566711 500.801971,550.293030 
	C502.392059,547.579895 503.822540,544.759827 505.141541,541.903320 
	C517.250549,515.680237 529.268250,489.414856 541.416992,463.210297 
	C550.189209,444.288940 559.192078,425.474548 567.958740,406.550690 
	C575.881531,389.448517 583.538940,372.223358 591.468811,355.124542 
	C599.564331,337.668488 607.932312,320.338715 616.024475,302.881104 
	C622.365845,289.200562 628.347961,275.353363 634.705383,261.680481 
	C644.001404,241.687454 653.601868,221.835785 662.869385,201.829712 
	C674.510193,176.700348 685.932190,151.469650 697.482666,126.298302 
	C699.488098,121.928017 699.103333,121.067535 694.323242,121.023399 
	C685.069092,120.937958 675.813538,120.997345 666.558594,120.997108 
	C651.943298,120.996742 637.327576,121.062584 622.712830,120.972206 
	C613.737244,120.916710 604.760559,120.453445 595.790649,120.589180 
	C594.153320,120.613953 591.874390,122.281326 591.048279,123.813934 
	C588.307129,128.899231 586.088745,134.266800 583.679138,139.530365 
	C577.391663,153.264862 571.173523,167.031586 564.808960,180.730286 
	C555.743591,200.241974 546.465210,219.655167 537.478638,239.202789 
	C529.737610,256.041199 522.282227,273.010864 514.692017,289.918671 
	C509.341095,301.838287 504.057922,313.789307 498.592560,325.656281 
	C493.850372,335.953186 488.894653,346.151764 483.796692,356.892303 
	C482.980621,355.669647 482.644470,355.290710 482.445496,354.849915 
	C473.526215,335.089661 464.666687,315.302124 455.628937,295.596313 
	C454.816650,293.825195 453.071350,291.873779 451.354675,291.361084 
	C450.375122,291.068481 448.067657,293.245728 447.241486,294.785034 
	C444.728241,299.467529 442.662079,304.388824 440.390015,309.202087 
	C435.581146,319.389252 430.717773,329.550842 425.939148,339.752075 
	C418.200348,356.272461 410.446045,372.786438 402.895752,389.392944 
	C402.070312,391.208405 401.855774,393.869049 402.538452,395.696777 
	C404.622467,401.276550 407.202209,406.678833 409.735260,412.081665 
	C416.611603,426.748596 423.613922,441.356567 430.469360,456.033173 
	C436.146057,468.186157 441.686035,480.403046 447.284241,492.592682 
	C452.955109,504.940521 459.071808,517.109924 464.118561,529.707886 
	C466.994415,536.886719 470.924469,543.059998 476.642395,547.870850 
	C479.619598,550.375732 483.882507,551.352600 488.413971,553.078064 
z"/>
<path fill="#F3F4EF" opacity="1.000000" stroke="none" 
	d="
M468.714111,137.331619 
	C470.143372,138.221313 472.030029,138.784943 472.932159,140.050400 
	C483.701447,155.157440 483.852966,171.601639 476.868256,187.834579 
	C468.317993,207.706055 458.467041,227.017151 449.210846,246.585876 
	C444.104767,257.380798 439.041229,268.196045 434.000977,279.021881 
	C425.279083,297.755341 416.600494,316.508911 407.884918,335.245300 
	C396.695770,359.299194 385.498596,383.349365 374.284546,407.391693 
	C366.952362,423.111420 359.517059,438.783386 352.253174,454.534546 
	C346.362305,467.308441 340.884705,480.276886 334.813629,492.962769 
	C327.156189,508.963501 319.483917,524.983276 311.018463,540.560242 
	C306.759430,548.397034 299.697998,553.257751 289.937408,553.071167 
	C277.356537,552.830750 264.731537,553.577576 252.195557,552.787903 
	C244.273636,552.288757 238.517487,546.631836 235.193161,539.734192 
	C225.342911,519.295715 216.093521,498.568787 206.454819,478.027100 
	C198.284134,460.614014 189.794144,443.350586 181.645264,425.927490 
	C176.323120,414.548218 171.481171,402.944855 166.201294,391.545105 
	C159.802979,377.730560 153.094788,364.059814 146.655151,350.264069 
	C136.188690,327.841614 125.913879,305.329468 115.404152,282.927429 
	C105.545753,261.913757 95.398781,241.035461 85.541656,220.021194 
	C75.044914,197.643326 64.743950,175.173645 54.347889,152.748505 
	C50.368259,144.164093 46.371117,135.587769 42.364170,127.016083 
	C40.326626,122.657349 41.309082,121.027863 46.268158,121.014786 
	C63.265747,120.969963 80.263527,120.997353 97.261238,120.997154 
	C114.092308,120.996964 130.964706,120.262321 147.742615,121.206589 
	C163.963333,122.119484 178.606400,128.058868 186.628510,143.330185 
	C194.157013,157.661835 200.304977,172.718460 207.066025,187.453537 
	C212.021164,198.252869 216.948837,209.065033 221.955261,219.840561 
	C227.538986,231.858597 233.186081,243.847244 238.827637,255.838333 
	C243.990112,266.811127 249.231674,277.746918 254.347717,288.741241 
	C260.081818,301.063812 265.702026,313.439331 271.405518,325.776245 
	C272.147766,327.381805 273.090851,328.894531 274.334381,331.170288 
	C278.263885,322.640808 281.822021,314.870575 285.419556,307.118683 
	C292.471039,291.924316 299.706390,276.812805 306.565002,261.532074 
	C313.968079,245.038345 320.819824,228.296127 328.290619,211.834106 
	C337.058594,192.513672 346.236267,173.379196 355.226318,154.159393 
	C355.645966,153.262177 356.031219,152.339249 356.327362,151.395325 
	C362.077057,133.069214 383.722321,120.630745 399.613831,120.899788 
	C410.730469,121.087982 421.869659,119.936958 432.986450,120.122681 
	C444.590179,120.316536 455.632416,123.201630 464.937256,130.607758 
	C466.702515,132.012802 467.570770,134.544876 468.517029,136.775070 
	C467.487549,136.603943 466.794006,136.214706 466.084778,135.879272 
	C466.069092,135.933075 466.180786,135.942490 466.072662,135.685242 
	C465.660797,135.225220 465.357056,135.022430 465.050659,134.886200 
	C465.047974,134.952774 465.180817,134.942352 465.072540,134.685303 
	C464.660706,134.225327 464.357117,134.022385 464.060913,133.875580 
	C464.068298,133.931686 464.175507,133.895416 464.072571,133.603485 
	C463.371460,132.792480 462.773315,132.273376 462.133789,131.797272 
	C462.092407,131.840240 462.210876,131.826111 462.020325,131.542664 
	C455.771637,128.760620 449.820526,124.480392 443.634521,124.108559 
	C427.247467,123.123535 410.750549,123.530350 394.313934,123.984375 
	C385.798676,124.219597 378.332855,128.056580 371.574097,133.764954 
	C370.492554,134.575241 369.702637,135.265671 368.941711,135.978302 
	C368.970673,136.000504 368.961182,135.928131 368.637146,136.032883 
	C365.186188,140.990128 361.424530,145.550232 359.033203,150.741592 
	C340.709778,190.519974 322.623810,230.407913 304.526154,270.290009 
	C295.962555,289.161774 287.535095,308.095276 278.871826,327.211487 
	C278.621155,327.587524 278.544617,327.752869 278.277405,328.105835 
	C277.950897,328.807953 277.815125,329.322449 277.470062,330.066315 
	C277.262848,330.678314 277.264862,331.060944 277.290558,331.556458 
	C277.314209,331.669312 277.544617,331.659119 277.213715,331.668152 
	C275.658386,333.012970 274.433960,334.348785 273.176392,335.765137 
	C273.143280,335.845703 273.316284,335.865997 273.242279,335.501221 
	C273.070160,334.818237 273.007843,334.483337 272.868866,334.184082 
	C243.550308,271.052002 214.282852,207.895966 184.765259,144.857056 
	C182.953293,140.987320 179.163742,138.043564 176.215652,134.674774 
	C176.136993,134.680588 176.287582,134.727570 176.120010,134.432922 
	C167.227646,127.020035 157.015808,123.859169 145.662109,122.620422 
	C144.526154,122.243912 143.713242,122.020531 142.900208,122.020042 
	C112.195580,122.001633 81.490929,121.993698 50.786358,122.038963 
	C49.531437,122.040817 48.277298,122.569099 46.630745,122.932709 
	C45.187389,123.113060 44.136082,123.212807 42.853764,123.334480 
	C54.150948,147.500214 65.267006,171.263824 76.370842,195.033157 
	C129.053162,307.807129 181.724258,420.586334 234.453598,533.338257 
	C235.910706,536.453979 237.980896,539.283081 239.740616,542.188965 
	C239.716019,542.132202 239.699570,542.254883 239.812347,542.573425 
	C243.825775,547.970642 249.215500,550.713257 255.371780,550.905457 
	C267.333588,551.279114 279.355377,551.556091 291.269226,550.707092 
	C295.777863,550.385803 300.056824,546.842407 304.540039,544.719360 
	C304.639587,544.670959 304.759949,544.485229 304.989990,544.384399 
	C305.640808,543.780945 306.061584,543.278320 306.585205,542.714355 
	C306.688019,542.653076 306.787872,542.435547 307.033813,542.301514 
	C307.964417,541.205627 308.649078,540.243713 309.330139,539.231750 
	C309.326508,539.181702 309.264191,539.260376 309.551483,539.078552 
	C316.346100,525.326355 322.853394,511.755951 329.315979,498.146545 
	C329.271271,498.107513 329.226807,498.217590 329.518616,498.022583 
	C347.317596,460.233002 364.831177,422.641388 382.329590,385.042725 
	C392.684326,362.793518 403.015045,340.533112 413.339172,318.223297 
	C413.321777,318.168854 413.213196,318.204620 413.504944,318.010254 
	C425.257690,293.310150 436.717346,268.803741 448.180298,244.298950 
	C457.324402,224.751251 466.952454,205.411392 475.459045,185.590195 
	C481.667145,171.124802 481.084564,156.453949 472.175354,142.837601 
	C472.179962,142.886932 472.257812,142.825623 472.161499,142.526520 
	C471.421753,141.421265 470.778320,140.615112 470.114929,139.863449 
	C470.094940,139.917938 470.210419,139.929489 470.114685,139.657928 
	C469.713867,139.178146 469.408783,138.969925 469.148804,138.821701 
	C469.193909,138.881683 469.293823,138.769638 469.211243,138.523651 
	C468.990448,137.962311 468.852295,137.646973 468.714111,137.331619 
z"/>
<path fill="#F3F2EE" opacity="1.000000" stroke="none" 
	d="
M487.989319,553.048828 
	C483.882507,551.352600 479.619598,550.375732 476.642395,547.870850 
	C470.924469,543.059998 466.994415,536.886719 464.118561,529.707886 
	C459.071808,517.109924 452.955109,504.940521 447.284241,492.592682 
	C441.686035,480.403046 436.146057,468.186157 430.469360,456.033173 
	C423.613922,441.356567 416.611603,426.748596 409.735260,412.081665 
	C407.202209,406.678833 404.622467,401.276550 402.538452,395.696777 
	C401.855774,393.869049 402.070312,391.208405 402.895752,389.392944 
	C410.446045,372.786438 418.200348,356.272461 425.939148,339.752075 
	C430.717773,329.550842 435.581146,319.389252 440.390015,309.202087 
	C442.662079,304.388824 444.728241,299.467529 447.241486,294.785034 
	C448.067657,293.245728 450.375122,291.068481 451.354675,291.361084 
	C453.071350,291.873779 454.816650,293.825195 455.628937,295.596313 
	C464.666687,315.302124 473.526215,335.089661 482.445496,354.849915 
	C482.644470,355.290710 482.980621,355.669647 483.796692,356.892303 
	C488.894653,346.151764 493.850372,335.953186 498.592560,325.656281 
	C504.057922,313.789307 509.341095,301.838287 514.692017,289.918671 
	C522.282227,273.010864 529.737610,256.041199 537.478638,239.202789 
	C546.465210,219.655167 555.743591,200.241974 564.808960,180.730286 
	C571.173523,167.031586 577.391663,153.264862 583.679138,139.530365 
	C586.088745,134.266800 588.307129,128.899231 591.048279,123.813934 
	C591.874390,122.281326 594.153320,120.613953 595.790649,120.589180 
	C604.760559,120.453445 613.737244,120.916710 622.712830,120.972206 
	C637.327576,121.062584 651.943298,120.996742 666.558594,120.997108 
	C675.813538,120.997345 685.069092,120.937958 694.323242,121.023399 
	C699.103333,121.067535 699.488098,121.928017 697.482666,126.298302 
	C685.932190,151.469650 674.510193,176.700348 662.869385,201.829712 
	C653.601868,221.835785 644.001404,241.687454 634.705383,261.680481 
	C628.347961,275.353363 622.365845,289.200562 616.024475,302.881104 
	C607.932312,320.338715 599.564331,337.668488 591.468811,355.124542 
	C583.538940,372.223358 575.881531,389.448517 567.958740,406.550690 
	C559.192078,425.474548 550.189209,444.288940 541.416992,463.210297 
	C529.268250,489.414856 517.250549,515.680237 505.141541,541.903320 
	C503.822540,544.759827 502.392059,547.579895 500.801971,550.293030 
	C497.711182,555.566711 493.016815,554.238525 487.989319,553.048828 
M446.929077,300.933411 
	C446.929077,300.933411 446.911377,300.849304 446.416046,301.311310 
	C445.412354,303.523102 444.408661,305.734924 443.049988,308.416107 
	C443.036591,308.611816 443.023163,308.807495 442.625153,309.590790 
	C434.893768,326.243530 427.162384,342.896271 419.447845,359.711884 
	C419.447845,359.711884 419.607971,359.746277 419.058136,360.129883 
	C414.322632,370.211517 409.512848,380.259674 404.940765,390.414856 
	C404.332733,391.765350 404.419617,393.892365 405.046112,395.267242 
	C420.970154,430.212341 436.951477,465.131744 453.057953,499.993164 
	C459.119324,513.112549 465.133545,526.279785 471.895294,539.040466 
	C476.497498,547.725647 484.252167,552.345032 494.490295,551.256897 
	C496.129608,551.082703 498.445160,550.001282 499.073242,548.683838 
	C507.222076,531.590454 515.122192,514.378479 523.609253,496.719788 
	C526.269165,490.989838 528.950012,485.269531 531.585205,479.528229 
	C541.424805,458.090668 551.249512,436.646179 561.572876,414.696320 
	C568.311951,400.197754 575.067810,385.706909 581.761230,371.187286 
	C582.358643,369.891479 582.550110,368.408539 583.056885,366.620331 
	C583.056885,366.620331 583.059509,366.208160 583.734009,365.957092 
	C584.545227,364.536987 585.466797,363.167969 586.151855,361.689423 
	C618.701843,291.437469 651.232788,221.176682 683.761414,150.914841 
	C687.993652,141.773178 692.202209,132.620575 696.581238,123.127274 
	C661.999084,123.127274 627.937256,123.127274 593.580811,123.127274 
	C592.665588,125.309517 591.713745,127.579124 590.850037,129.887741 
	C590.850037,129.887741 590.848389,129.791412 590.393311,130.153046 
	C590.233215,130.700928 590.073181,131.248825 589.416321,132.304810 
	C572.458069,169.310852 555.482666,206.309021 538.546448,243.325134 
	C521.060913,281.541687 503.613556,319.775726 485.806885,358.545288 
	C485.163147,359.628876 484.519409,360.712433 483.531921,361.545227 
	C483.178192,361.332794 482.824463,361.120361 482.287537,360.155853 
	C479.536530,353.954010 476.880035,347.708160 474.015778,341.559052 
	C466.888733,326.258484 459.667084,311.002014 452.623932,295.559326 
	C452.623932,295.559326 452.558258,295.350006 452.372101,294.699768 
	C451.955078,294.121094 451.538055,293.542450 451.121033,292.963776 
	C450.710266,293.585693 450.299500,294.207642 449.436066,295.230865 
	C449.239380,295.793640 449.042694,296.356445 448.351440,297.341217 
	C447.849365,298.532410 447.347290,299.723572 446.929077,300.933411 
z"/>
<path fill="#347878" opacity="1.000000" stroke="none" 
	d="
M277.679321,329.836975 
	C277.815125,329.322449 277.950897,328.807953 278.590698,328.047607 
	C279.428101,327.554108 279.761505,327.306366 280.352448,326.833374 
	C288.247101,310.639435 296.071075,294.756775 303.470673,278.678833 
	C311.435455,261.372894 318.978271,243.873062 326.749939,226.477829 
	C333.957581,210.345123 340.869019,194.066528 348.574951,178.174179 
	C354.986603,164.951080 359.059906,150.518417 368.440857,138.775528 
	C368.971283,138.111588 368.803802,136.890106 368.961182,135.928131 
	C368.961182,135.928131 368.970673,136.000504 369.286621,135.986084 
	C370.415039,135.676147 371.227539,135.380646 372.346222,134.926178 
	C381.329620,128.380432 391.106598,125.175423 401.829193,125.055672 
	C413.958496,124.920204 426.131378,124.425560 438.204468,125.258743 
	C444.587372,125.699234 450.797028,128.634369 457.088135,130.431824 
	C458.789612,130.917953 460.502960,131.362488 462.210876,131.826111 
	C462.210876,131.826111 462.092407,131.840240 462.100525,132.155441 
	C462.797638,132.945572 463.486572,133.420486 464.175507,133.895416 
	C464.175507,133.895416 464.068298,133.931686 464.158997,134.141296 
	C464.560059,134.548065 464.870422,134.745209 465.180817,134.942352 
	C465.180817,134.942352 465.047974,134.952774 465.149048,135.151733 
	C465.560333,135.547974 465.870544,135.745224 466.180786,135.942490 
	C466.180786,135.942490 466.069092,135.933075 466.073059,136.250397 
	C467.149261,137.301697 468.221558,138.035675 469.293823,138.769638 
	C469.293823,138.769638 469.193909,138.881683 469.231323,139.099579 
	C469.582642,139.521484 469.896545,139.725494 470.210419,139.929489 
	C470.210419,139.929489 470.094940,139.917938 470.063477,140.247803 
	C470.773926,141.326965 471.515869,142.076294 472.257812,142.825623 
	C472.257812,142.825623 472.179962,142.886932 472.111237,143.235779 
	C472.275818,144.541336 472.363220,145.564545 472.764404,146.444733 
	C478.431641,158.878601 479.190704,171.720627 473.929108,184.206650 
	C467.039154,200.556870 459.217957,216.517334 451.694244,232.597198 
	C440.219971,257.120239 428.595123,281.573029 417.197449,306.131439 
	C415.425354,309.949768 414.519562,314.170135 413.213196,318.204620 
	C413.213196,318.204620 413.321777,318.168854 412.965820,318.160583 
	C411.686096,319.233215 410.468201,320.175354 409.883026,321.415955 
	C402.260345,337.575928 394.725586,353.777405 387.172089,369.970001 
	C369.258453,408.371887 351.300201,446.753052 333.501709,485.208221 
	C331.597351,489.322815 330.629242,493.870697 329.226807,498.217590 
	C329.226807,498.217590 329.271271,498.107513 328.944977,498.187775 
	C326.451508,501.444244 323.855591,504.414124 322.207031,507.839905 
	C318.837830,514.841492 315.921204,522.064575 312.933868,529.244568 
	C311.569275,532.524353 310.478943,535.918213 309.264221,539.260376 
	C309.264191,539.260376 309.326508,539.181702 308.944153,539.154968 
	C307.970490,540.230652 307.379181,541.333130 306.787903,542.435547 
	C306.787872,542.435547 306.688019,542.653076 306.229431,542.499390 
	C305.433838,543.058899 305.096893,543.772034 304.759949,544.485229 
	C304.759949,544.485229 304.639587,544.670959 304.208618,544.494873 
	C298.915985,545.885803 294.138245,548.353088 289.173645,548.815796 
	C281.037628,549.574219 272.776611,548.881165 264.574890,549.076477 
	C256.171722,549.276611 247.945206,549.257935 241.575775,542.460999 
	C241.249039,542.112366 240.338348,542.311035 239.699570,542.254883 
	C239.699570,542.254883 239.716019,542.132202 239.829498,541.797363 
	C238.630219,538.455505 237.371811,535.423523 235.995941,532.445679 
	C226.808273,512.560669 217.649734,492.661957 208.376831,472.816681 
	C197.509995,449.560242 186.499817,426.370819 175.619415,403.120697 
	C164.218597,378.758392 152.909927,354.353058 141.538574,329.976959 
	C131.991577,309.511627 122.424332,289.055695 112.844872,268.605530 
	C95.573036,231.733734 78.266747,194.878067 61.015991,157.996414 
	C56.031918,147.340607 51.188389,136.619049 46.147774,125.638672 
	C49.295940,125.420616 52.194199,125.049713 55.093014,125.045319 
	C85.057709,124.999840 115.024384,124.840340 144.985519,125.168602 
	C150.452255,125.228500 156.010300,126.976402 161.318481,128.617096 
	C166.447708,130.202469 171.308746,132.655609 176.287582,134.727570 
	C176.287582,134.727570 176.136993,134.680588 176.130966,135.041183 
	C180.371002,142.834488 185.058029,150.054230 188.771576,157.744110 
	C196.565277,173.883102 203.847534,190.269058 211.339172,206.553925 
	C222.856430,231.589417 234.300201,256.659088 245.915527,281.649017 
	C253.822601,298.660828 261.937958,315.576385 270.069519,332.482361 
	C270.713440,333.821075 272.213898,334.747803 273.316284,335.865997 
	C273.316284,335.865997 273.143280,335.845703 273.157349,336.129181 
	C274.165527,336.473724 275.860657,336.882324 276.032471,336.535736 
	C276.778748,335.030304 277.080994,333.304688 277.544617,331.659119 
	C277.544617,331.659119 277.314209,331.669312 277.635498,331.649719 
	C277.864258,331.032379 277.771790,330.434692 277.679321,329.836975 
z"/>
<path fill="#186565" opacity="1.000000" stroke="none" 
	d="
M176.120010,134.432922 
	C171.308746,132.655609 166.447708,130.202469 161.318481,128.617096 
	C156.010300,126.976402 150.452255,125.228500 144.985519,125.168602 
	C115.024384,124.840340 85.057709,124.999840 55.093014,125.045319 
	C52.194199,125.049713 49.295940,125.420616 46.147774,125.638672 
	C51.188389,136.619049 56.031918,147.340607 61.015991,157.996414 
	C78.266747,194.878067 95.573036,231.733734 112.844872,268.605530 
	C122.424332,289.055695 131.991577,309.511627 141.538574,329.976959 
	C152.909927,354.353058 164.218597,378.758392 175.619415,403.120697 
	C186.499817,426.370819 197.509995,449.560242 208.376831,472.816681 
	C217.649734,492.661957 226.808273,512.560669 235.995941,532.445679 
	C237.371811,535.423523 238.630219,538.455505 239.854095,541.854126 
	C237.980896,539.283081 235.910706,536.453979 234.453598,533.338257 
	C181.724258,420.586334 129.053162,307.807129 76.370842,195.033157 
	C65.267006,171.263824 54.150948,147.500214 42.853764,123.334480 
	C44.136082,123.212807 45.187389,123.113060 47.093494,123.000938 
	C80.627220,122.951546 113.306160,122.914520 145.985092,122.877502 
	C157.015808,123.859169 167.227646,127.020035 176.120010,134.432922 
z"/>
<path fill="#186565" opacity="1.000000" stroke="none" 
	d="
M273.242279,335.501221 
	C272.213898,334.747803 270.713440,333.821075 270.069519,332.482361 
	C261.937958,315.576385 253.822601,298.660828 245.915527,281.649017 
	C234.300201,256.659088 222.856430,231.589417 211.339172,206.553925 
	C203.847534,190.269058 196.565277,173.883102 188.771576,157.744110 
	C185.058029,150.054230 180.371002,142.834488 176.209625,135.035370 
	C179.163742,138.043564 182.953293,140.987320 184.765259,144.857056 
	C214.282852,207.895966 243.550308,271.052002 272.868866,334.184082 
	C273.007843,334.483337 273.070160,334.818237 273.242279,335.501221 
z"/>
<path fill="#196566" opacity="1.000000" stroke="none" 
	d="
M368.637146,136.032883 
	C368.803802,136.890106 368.971283,138.111588 368.440857,138.775528 
	C359.059906,150.518417 354.986603,164.951080 348.574951,178.174179 
	C340.869019,194.066528 333.957581,210.345123 326.749939,226.477829 
	C318.978271,243.873062 311.435455,261.372894 303.470673,278.678833 
	C296.071075,294.756775 288.247101,310.639435 280.090027,326.812958 
	C279.395355,327.012146 279.220642,327.006470 279.045959,327.000824 
	C287.535095,308.095276 295.962555,289.161774 304.526154,270.290009 
	C322.623810,230.407913 340.709778,190.519974 359.033203,150.741592 
	C361.424530,145.550232 365.186188,140.990128 368.637146,136.032883 
z"/>
<path fill="#186565" opacity="1.000000" stroke="none" 
	d="
M329.518616,498.022583 
	C330.629242,493.870697 331.597351,489.322815 333.501709,485.208221 
	C351.300201,446.753052 369.258453,408.371887 387.172089,369.970001 
	C394.725586,353.777405 402.260345,337.575928 409.883026,321.415955 
	C410.468201,320.175354 411.686096,319.233215 412.983215,318.215027 
	C403.015045,340.533112 392.684326,362.793518 382.329590,385.042725 
	C364.831177,422.641388 347.317596,460.233002 329.518616,498.022583 
z"/>
<path fill="#186565" opacity="1.000000" stroke="none" 
	d="
M413.504944,318.010254 
	C414.519562,314.170135 415.425354,309.949768 417.197449,306.131439 
	C428.595123,281.573029 440.219971,257.120239 451.694244,232.597198 
	C459.217957,216.517334 467.039154,200.556870 473.929108,184.206650 
	C479.190704,171.720627 478.431641,158.878601 472.764404,146.444733 
	C472.363220,145.564545 472.275818,144.541336 472.106628,143.186447 
	C481.084564,156.453949 481.667145,171.124802 475.459045,185.590195 
	C466.952454,205.411392 457.324402,224.751251 448.180298,244.298950 
	C436.717346,268.803741 425.257690,293.310150 413.504944,318.010254 
z"/>
<path fill="#1A6768" opacity="1.000000" stroke="none" 
	d="
M462.020325,131.542664 
	C460.502960,131.362488 458.789612,130.917953 457.088135,130.431824 
	C450.797028,128.634369 444.587372,125.699234 438.204468,125.258743 
	C426.131378,124.425560 413.958496,124.920204 401.829193,125.055672 
	C391.106598,125.175423 381.329620,128.380432 372.304443,134.565521 
	C371.926270,134.124268 371.895996,133.884674 371.865723,133.645096 
	C378.332855,128.056580 385.798676,124.219597 394.313934,123.984375 
	C410.750549,123.530350 427.247467,123.123535 443.634521,124.108559 
	C449.820526,124.480392 455.771637,128.760620 462.020325,131.542664 
z"/>
<path fill="#186565" opacity="1.000000" stroke="none" 
	d="
M239.812347,542.573425 
	C240.338348,542.311035 241.249039,542.112366 241.575775,542.460999 
	C247.945206,549.257935 256.171722,549.276611 264.574890,549.076477 
	C272.776611,548.881165 281.037628,549.574219 289.173645,548.815796 
	C294.138245,548.353088 298.915985,545.885803 304.109070,544.543274 
	C300.056824,546.842407 295.777863,550.385803 291.269226,550.707092 
	C279.355377,551.556091 267.333588,551.279114 255.371780,550.905457 
	C249.215500,550.713257 243.825775,547.970642 239.812347,542.573425 
z"/>
<path fill="#F6F0E5" opacity="1.000000" stroke="none" 
	d="
M145.662109,122.620422 
	C113.306160,122.914520 80.627220,122.951546 47.485542,122.920341 
	C48.277298,122.569099 49.531437,122.040817 50.786358,122.038963 
	C81.490929,121.993698 112.195580,122.001633 142.900208,122.020042 
	C143.713242,122.020531 144.526154,122.243912 145.662109,122.620422 
z"/>
<path fill="#186565" opacity="1.000000" stroke="none" 
	d="
M309.551514,539.078552 
	C310.478943,535.918213 311.569275,532.524353 312.933868,529.244568 
	C315.921204,522.064575 318.837830,514.841492 322.207031,507.839905 
	C323.855591,504.414124 326.451508,501.444244 328.989685,498.226807 
	C322.853394,511.755951 316.346100,525.326355 309.551514,539.078552 
z"/>
<path fill="#186565" opacity="1.000000" stroke="none" 
	d="
M277.213745,331.668152 
	C277.080994,333.304688 276.778748,335.030304 276.032471,336.535736 
	C275.860657,336.882324 274.165527,336.473724 273.190491,336.048645 
	C274.433960,334.348785 275.658386,333.012970 277.213745,331.668152 
z"/>
<path fill="#186565" opacity="1.000000" stroke="none" 
	d="
M307.033813,542.301514 
	C307.379181,541.333130 307.970490,540.230652 308.947754,539.205017 
	C308.649078,540.243713 307.964417,541.205627 307.033813,542.301514 
z"/>
<path fill="#186565" opacity="1.000000" stroke="none" 
	d="
M469.211243,138.523651 
	C468.221558,138.035675 467.149261,137.301697 466.088715,136.196594 
	C466.794006,136.214706 467.487549,136.603943 468.443817,137.153290 
	C468.706512,137.313400 468.931976,137.225800 468.823059,137.278717 
	C468.852295,137.646973 468.990448,137.962311 469.211243,138.523651 
z"/>
<path fill="#196566" opacity="1.000000" stroke="none" 
	d="
M371.574097,133.764954 
	C371.895996,133.884674 371.926270,134.124268 371.998291,134.724487 
	C371.227539,135.380646 370.415039,135.676147 369.257629,135.963867 
	C369.702637,135.265671 370.492554,134.575241 371.574097,133.764954 
z"/>
<path fill="#186565" opacity="1.000000" stroke="none" 
	d="
M472.161499,142.526520 
	C471.515869,142.076294 470.773926,141.326965 470.083435,140.193298 
	C470.778320,140.615112 471.421753,141.421265 472.161499,142.526520 
z"/>
<path fill="#186565" opacity="1.000000" stroke="none" 
	d="
M304.989960,544.384399 
	C305.096893,543.772034 305.433838,543.058899 306.126587,542.560730 
	C306.061584,543.278320 305.640808,543.780945 304.989960,544.384399 
z"/>
<path fill="#1A6768" opacity="1.000000" stroke="none" 
	d="
M464.072571,133.603485 
	C463.486572,133.420486 462.797638,132.945572 462.141907,132.112457 
	C462.773315,132.273376 463.371460,132.792480 464.072571,133.603485 
z"/>
<path fill="#186565" opacity="1.000000" stroke="none" 
	d="
M277.470062,330.066315 
	C277.771790,330.434692 277.864258,331.032379 277.611816,331.536865 
	C277.264862,331.060944 277.262848,330.678314 277.470062,330.066315 
z"/>
<path fill="#186565" opacity="1.000000" stroke="none" 
	d="
M278.871826,327.211487 
	C279.220642,327.006470 279.395355,327.012146 279.832520,327.038208 
	C279.761505,327.306366 279.428101,327.554108 278.781403,327.860046 
	C278.544617,327.752869 278.621155,327.587524 278.871826,327.211487 
z"/>
<path fill="#1A6768" opacity="1.000000" stroke="none" 
	d="
M465.072540,134.685303 
	C464.870422,134.745209 464.560059,134.548065 464.151611,134.085190 
	C464.357117,134.022385 464.660706,134.225327 465.072540,134.685303 
z"/>
<path fill="#1A6768" opacity="1.000000" stroke="none" 
	d="
M466.072662,135.685242 
	C465.870544,135.745224 465.560333,135.547974 465.151703,135.085175 
	C465.357056,135.022430 465.660797,135.225220 466.072662,135.685242 
z"/>
<path fill="#186565" opacity="1.000000" stroke="none" 
	d="
M470.114685,139.657928 
	C469.896545,139.725494 469.582642,139.521484 469.186218,139.039612 
	C469.408783,138.969925 469.713867,139.178146 470.114685,139.657928 
z"/>
<path fill="#434C50" opacity="1.000000" stroke="none" 
	d="
M443.009766,309.003204 
	C443.023163,308.807495 443.036591,308.611816 443.563904,308.126343 
	C445.022339,305.507507 445.966858,303.178406 446.911377,300.849304 
	C446.911377,300.849304 446.929077,300.933411 447.223816,300.945618 
	C447.961029,299.611603 448.403473,298.265411 448.845947,296.919220 
	C449.042694,296.356445 449.239380,295.793640 449.897827,295.346222 
	C451.092499,295.424377 451.825378,295.387177 452.558258,295.349976 
	C452.558258,295.350006 452.623932,295.559326 452.378693,296.023865 
	C454.888000,302.960541 457.556244,309.471069 460.415375,315.896667 
	C466.126740,328.732300 471.867188,341.556488 477.782440,354.298706 
	C478.900879,356.708038 480.885651,358.715210 482.470703,360.907928 
	C482.824463,361.120361 483.178192,361.332794 483.897034,361.915222 
	C485.241669,360.895660 486.221161,359.506134 487.483826,357.917938 
	C490.643921,351.560760 493.530334,345.406677 496.396027,339.242981 
	C506.613495,317.266876 516.890015,295.317963 527.019226,273.301270 
	C538.264282,248.859085 549.312073,224.326157 560.560730,199.885651 
	C568.480103,182.679016 576.697327,165.608948 584.550110,148.372437 
	C586.790405,143.455124 588.221680,138.169250 590.305908,132.828979 
	C590.674744,131.667526 590.761597,130.729477 590.848389,129.791412 
	C590.848389,129.791412 590.850037,129.887741 591.187622,129.909393 
	C594.970825,123.508965 601.057861,125.023651 606.564392,125.015907 
	C633.699280,124.977745 660.834351,125.005325 687.969299,125.009628 
	C689.688904,125.009903 691.408508,125.009651 693.610046,125.009651 
	C691.231262,129.961929 689.177734,134.091934 687.247559,138.278809 
	C675.087280,164.656570 662.955750,191.047546 650.812012,217.432922 
	C641.735779,237.153534 632.717712,256.901276 623.561096,276.584534 
	C612.288452,300.816467 600.826538,324.960541 589.614807,349.220428 
	C587.073853,354.718536 585.226318,360.537109 583.059509,366.208160 
	C583.059509,366.208160 583.056885,366.620331 582.650330,366.856873 
	C581.540283,367.981049 580.632629,368.773102 580.164978,369.771271 
	C575.795349,379.098236 571.387268,388.410278 567.230042,397.832428 
	C564.908325,403.094513 563.039734,408.556549 560.621948,414.001526 
	C559.810608,414.716949 559.224670,415.303558 558.895630,416.009888 
	C551.747192,431.356140 544.601013,446.703583 537.510437,462.076630 
	C532.302673,473.367645 527.174988,484.695618 521.761841,496.249512 
	C513.960205,512.774231 506.449860,529.076111 498.785553,545.305298 
	C498.092438,546.773071 496.507416,548.683777 495.165863,548.830811 
	C489.512207,549.450378 483.606384,549.670349 479.384399,544.877625 
	C476.018372,541.056458 472.383453,537.163452 470.211060,532.655090 
	C462.393127,516.430603 455.127563,499.939484 447.685059,483.534729 
	C440.274323,467.199921 432.970917,450.816101 425.489075,434.514069 
	C420.166412,422.916504 414.480011,411.484406 409.253876,399.844727 
	C407.137848,395.131866 406.131195,390.262573 409.275299,385.165283 
	C412.139313,380.522034 414.427246,375.477905 416.533539,370.428741 
	C417.950653,367.031616 418.609772,363.318207 419.607971,359.746277 
	C419.607971,359.746277 419.447845,359.711884 419.818848,359.684937 
	C420.855072,358.969727 421.763641,358.396027 422.149475,357.576263 
	C429.285248,342.416962 436.381287,327.238678 443.380219,312.015930 
	C443.739807,311.233795 443.154907,310.017395 443.009766,309.003204 
z"/>
<path fill="#273137" opacity="1.000000" stroke="none" 
	d="
M583.396729,366.082642 
	C585.226318,360.537109 587.073853,354.718536 589.614807,349.220428 
	C600.826538,324.960541 612.288452,300.816467 623.561096,276.584534 
	C632.717712,256.901276 641.735779,237.153534 650.812012,217.432922 
	C662.955750,191.047546 675.087280,164.656570 687.247559,138.278809 
	C689.177734,134.091934 691.231262,129.961929 693.610046,125.009651 
	C691.408508,125.009651 689.688904,125.009903 687.969299,125.009628 
	C660.834351,125.005325 633.699280,124.977745 606.564392,125.015907 
	C601.057861,125.023651 594.970825,123.508965 591.143555,129.889877 
	C591.713745,127.579124 592.665588,125.309517 593.580811,123.127274 
	C627.937256,123.127274 661.999084,123.127274 696.581238,123.127274 
	C692.202209,132.620575 687.993652,141.773178 683.761414,150.914841 
	C651.232788,221.176682 618.701843,291.437469 586.151855,361.689423 
	C585.466797,363.167969 584.545227,364.536987 583.396729,366.082642 
z"/>
<path fill="#263037" opacity="1.000000" stroke="none" 
	d="
M419.333069,359.938080 
	C418.609772,363.318207 417.950653,367.031616 416.533539,370.428741 
	C414.427246,375.477905 412.139313,380.522034 409.275299,385.165283 
	C406.131195,390.262573 407.137848,395.131866 409.253876,399.844727 
	C414.480011,411.484406 420.166412,422.916504 425.489075,434.514069 
	C432.970917,450.816101 440.274323,467.199921 447.685059,483.534729 
	C455.127563,499.939484 462.393127,516.430603 470.211060,532.655090 
	C472.383453,537.163452 476.018372,541.056458 479.384399,544.877625 
	C483.606384,549.670349 489.512207,549.450378 495.165863,548.830811 
	C496.507416,548.683777 498.092438,546.773071 498.785553,545.305298 
	C506.449860,529.076111 513.960205,512.774231 521.994934,496.393250 
	C522.680176,496.595184 522.882629,496.895782 523.085022,497.196411 
	C515.122192,514.378479 507.222076,531.590454 499.073242,548.683838 
	C498.445160,550.001282 496.129608,551.082703 494.490295,551.256897 
	C484.252167,552.345032 476.497498,547.725647 471.895294,539.040466 
	C465.133545,526.279785 459.119324,513.112549 453.057953,499.993164 
	C436.951477,465.131744 420.970154,430.212341 405.046112,395.267242 
	C404.419617,393.892365 404.332733,391.765350 404.940765,390.414856 
	C409.512848,380.259674 414.322632,370.211517 419.333069,359.938080 
z"/>
<path fill="#283238" opacity="1.000000" stroke="none" 
	d="
M590.023926,133.052368 
	C588.221680,138.169250 586.790405,143.455124 584.550110,148.372437 
	C576.697327,165.608948 568.480103,182.679016 560.560730,199.885651 
	C549.312073,224.326157 538.264282,248.859085 527.019226,273.301270 
	C516.890015,295.317963 506.613495,317.266876 496.396027,339.242981 
	C493.530334,345.406677 490.643921,351.560760 487.221008,357.878143 
	C486.499817,358.025391 486.324646,358.013733 486.149475,358.002106 
	C503.613556,319.775726 521.060913,281.541687 538.546448,243.325134 
	C555.482666,206.309021 572.458069,169.310852 589.694153,132.364517 
	C589.989319,132.633606 590.006653,132.842987 590.023926,133.052368 
z"/>
<path fill="#283238" opacity="1.000000" stroke="none" 
	d="
M523.347168,496.958069 
	C522.882629,496.895782 522.680176,496.595184 522.244629,496.150818 
	C527.174988,484.695618 532.302673,473.367645 537.510437,462.076630 
	C544.601013,446.703583 551.747192,431.356140 558.895630,416.009888 
	C559.224670,415.303558 559.810608,414.716949 560.649414,414.321106 
	C561.041260,414.779877 561.060547,414.992096 561.079773,415.204315 
	C551.249512,436.646179 541.424805,458.090668 531.585205,479.528229 
	C528.950012,485.269531 526.269165,490.989838 523.347168,496.958069 
z"/>
<path fill="#273137" opacity="1.000000" stroke="none" 
	d="
M482.379120,360.531891 
	C480.885651,358.715210 478.900879,356.708038 477.782440,354.298706 
	C471.867188,341.556488 466.126740,328.732300 460.415375,315.896667 
	C457.556244,309.471069 454.888000,302.960541 452.308411,296.108124 
	C459.667084,311.002014 466.888733,326.258484 474.015778,341.559052 
	C476.880035,347.708160 479.536530,353.954010 482.379120,360.531891 
z"/>
<path fill="#283238" opacity="1.000000" stroke="none" 
	d="
M442.817444,309.296997 
	C443.154907,310.017395 443.739807,311.233795 443.380219,312.015930 
	C436.381287,327.238678 429.285248,342.416962 422.149475,357.576263 
	C421.763641,358.396027 420.855072,358.969727 419.810425,359.603485 
	C427.162384,342.896271 434.893768,326.243530 442.817444,309.296997 
z"/>
<path fill="#29333A" opacity="1.000000" stroke="none" 
	d="
M561.326294,414.950317 
	C561.060547,414.992096 561.041260,414.779877 560.994446,414.248047 
	C563.039734,408.556549 564.908325,403.094513 567.230042,397.832428 
	C571.387268,388.410278 575.795349,379.098236 580.164978,369.771271 
	C580.632629,368.773102 581.540283,367.981049 582.586914,367.052948 
	C582.550110,368.408539 582.358643,369.891479 581.761230,371.187286 
	C575.067810,385.706909 568.311951,400.197754 561.326294,414.950317 
z"/>
<path fill="#273137" opacity="1.000000" stroke="none" 
	d="
M446.663727,301.080322 
	C445.966858,303.178406 445.022339,305.507507 443.741394,307.891663 
	C444.408661,305.734924 445.412354,303.523102 446.663727,301.080322 
z"/>
<path fill="#273137" opacity="1.000000" stroke="none" 
	d="
M485.978180,358.273682 
	C486.324646,358.013733 486.499817,358.025391 486.937805,358.076813 
	C486.221161,359.506134 485.241669,360.895660 484.068909,362.040588 
	C484.519409,360.712433 485.163147,359.628876 485.978180,358.273682 
z"/>
<path fill="#273137" opacity="1.000000" stroke="none" 
	d="
M448.598694,297.130219 
	C448.403473,298.265411 447.961029,299.611603 447.181885,300.936279 
	C447.347290,299.723572 447.849365,298.532410 448.598694,297.130219 
z"/>
<path fill="#273137" opacity="1.000000" stroke="none" 
	d="
M452.465179,295.024872 
	C451.825378,295.387177 451.092499,295.424377 450.124176,295.145569 
	C450.299500,294.207642 450.710266,293.585693 451.121033,292.963776 
	C451.538055,293.542450 451.955078,294.121094 452.465179,295.024872 
z"/>
<path fill="#273137" opacity="1.000000" stroke="none" 
	d="
M590.305908,132.828979 
	C590.006653,132.842987 589.989319,132.633606 589.942505,132.110474 
	C590.073181,131.248825 590.233215,130.700928 590.620850,129.972229 
	C590.761597,130.729477 590.674744,131.667526 590.305908,132.828979 
z"/>
</svg>